<svg id="Capa_1" enable-background="new 0 0 476.188 476.188" height="512" viewBox="0 0 476.188 476.188" width="512" xmlns="http://www.w3.org/2000/svg"><g><ellipse cx="178.417" cy="140.349" fill="#ef8bbd" rx="49.044" ry="80.427" transform="matrix(.923 -.385 .385 .923 -40.304 79.592)"/><ellipse cx="280.367" cy="140.349" fill="#ef8bbd" rx="80.755" ry="48.845" transform="matrix(.427 -.904 .904 .427 33.705 333.898)"/><path d="m346.275 476.188h-233.689c-23.833 0-43.153-19.32-43.153-43.153v-233.689c0-23.833 19.32-43.153 43.153-43.153h233.689c23.833 0 43.153 19.32 43.153 43.153v233.689c0 23.833-19.32 43.153-43.153 43.153z" fill="#ffe266"/><path d="m193.047 157.111h72.767v319.077h-72.767z" fill="#ef8bbd"/><path d="m346.275 156.193h-52.852c19.283 0 34.915 15.632 34.915 34.915v189.076c0 19.283-15.632 34.914-34.915 34.914h-189.075c-19.283 0-34.915-15.632-34.915-34.914v52.852c0 23.833 19.32 43.153 43.153 43.153h233.689c23.833 0 43.153-19.32 43.153-43.153v-233.69c0-23.832-19.32-43.153-43.153-43.153z" fill="#efaa66"/><path d="m193.047 415.098h72.767v61.09h-72.767z" fill="#e068bd"/><path d="m396.405 268.821h-333.949c-7.919 0-14.339-6.42-14.339-14.339v-68.269c0-24.481 19.846-44.326 44.326-44.326h86.124l50.863 8.301 50.864-8.301h86.124c24.481 0 44.326 19.846 44.326 44.326v68.269c0 7.919-6.42 14.339-14.339 14.339z" fill="#ffe266"/><path d="m178.567 141.887h101.727v126.934h-101.727z" fill="#ef8bbd"/><path d="m366.418 141.887h-70.778c18.179 0 32.916 14.737 32.916 32.916v46.945c0 5.88-4.767 10.648-10.648 10.648h-259.143c-5.881 0-10.648-4.767-10.648-10.648v32.734c0 7.919 6.42 14.339 14.339 14.339h333.949c7.919 0 14.339-6.42 14.339-14.339v-68.269c0-24.48-19.845-44.326-44.326-44.326z" fill="#efaa66"/><path d="m178.567 232.395h101.727v36.426h-101.727z" fill="#e068bd"/><g><path d="m140.194 187.294h-46.57c-5.522 0-10-4.477-10-10s4.478-10 10-10h46.57c5.522 0 10 4.477 10 10s-4.477 10-10 10z" fill="#fff"/></g><path d="m59.548 13.872 8.214 23.098c.352.989 1.048 1.773 1.927 2.168l20.521 9.246c2.899 1.306 2.899 5.925 0 7.232l-20.521 9.246c-.879.396-1.575 1.179-1.927 2.168l-8.214 23.098c-1.16 3.263-5.265 3.263-6.425 0l-8.214-23.098c-.352-.989-1.048-1.773-1.927-2.168l-20.521-9.246c-2.899-1.306-2.899-5.925 0-7.232l20.521-9.246c.879-.396 1.575-1.18 1.927-2.168l8.214-23.098c1.16-3.264 5.265-3.264 6.425 0z" fill="#fef2a8"/><path d="m431.544 63.622 6.093 17.133c.261.734.777 1.315 1.429 1.609l15.222 6.858c2.151.969 2.151 4.395 0 5.364l-15.222 6.858c-.652.294-1.168.875-1.429 1.609l-6.093 17.133c-.861 2.421-3.905 2.421-4.766 0l-6.093-17.133c-.261-.734-.777-1.315-1.429-1.609l-15.222-6.858c-2.15-.969-2.15-4.395 0-5.364l15.222-6.858c.652-.294 1.168-.875 1.429-1.609l6.093-17.133c.861-2.421 3.905-2.421 4.766 0z" fill="#fef2a8"/><g fill="#ffe266"><ellipse cx="367.896" cy="17.937" rx="17.937" ry="17.937" transform="matrix(.23 -.973 .973 .23 265.914 371.87)"/><circle cx="115.79" cy="10.153" r="7.737"/></g></g></svg>